<mxfile host="app.diagrams.net" modified="2024-02-13T11:40:48.415Z" agent="Mozilla/5.0 (Macintosh; Intel Mac OS X 10_15_7) AppleWebKit/605.1.15 (KHTML, like Gecko) Version/17.2.1 Safari/605.1.15" version="23.1.3" etag="QiFslHeSing36gzUHyVf" type="github">
  <diagram name="Page-1" id="O4E6hyYiJFyA3QKXJ2fg">
    <mxGraphModel>
      <root>
        <mxCell id="0" />
        <mxCell id="1" parent="0" />
      </root>
    </mxGraphModel>
  </diagram>
</mxfile>
